<?xml version="1.0" encoding="UTF-8" standalone="no"?>
<!-- Created with Inkscape (http://www.inkscape.org/) -->

<svg
   xmlns:dc="http://purl.org/dc/elements/1.1/"
   xmlns:cc="http://creativecommons.org/ns#"
   xmlns:rdf="http://www.w3.org/1999/02/22-rdf-syntax-ns#"
   xmlns:svg="http://www.w3.org/2000/svg"
   xmlns="http://www.w3.org/2000/svg"
   xmlns:xlink="http://www.w3.org/1999/xlink"
   version="1.2"
   width="744.09448"
   height="1052.3622"
   id="svg2">
  <defs
     id="defs4">
    <linearGradient
       id="linearGradient3061">
      <stop
         id="stop3063"
         style="stop-color:#ffffff;stop-opacity:1"
         offset="0" />
      <stop
         id="stop3065"
         style="stop-color:#ff0000;stop-opacity:1"
         offset="1" />
    </linearGradient>
    <linearGradient
       x1="-585.71429"
       y1="-19.066389"
       x2="-674.28571"
       y2="235.21933"
       id="linearGradient3067"
       xlink:href="#linearGradient3061"
       gradientUnits="userSpaceOnUse" />
  </defs>
  <metadata
     id="metadata7">
    <rdf:RDF>
      <cc:Work
         rdf:about="">
        <dc:format>image/svg+xml</dc:format>
        <dc:type
           rdf:resource="http://purl.org/dc/dcmitype/StillImage" />
        <dc:title></dc:title>
      </cc:Work>
    </rdf:RDF>
  </metadata>
  <g
     id="layer1">
    <path
       d="m 22.18536,816.36117 0.2432,62.36609 c 31.42863,16.19048 62.85713,32.38095 94.28573,48.57143 l 0,51.42853"
       id="path3007"
       style="fill:none;stroke:#4b17e8;stroke-width:6.19999981;stroke-linecap:round;stroke-linejoin:miter;stroke-miterlimit:4;stroke-opacity:0.94901961;stroke-dasharray:none" />
    <path
       d="m 116.31239,819.21831 0,58.52686 -93.88383,49.55352 0,54.28573"
       id="path3017"
       style="fill:none;stroke:#4b17e8;stroke-width:6.19999981;stroke-linecap:round;stroke-linejoin:miter;stroke-miterlimit:4;stroke-opacity:0.94901961;stroke-dasharray:none" />
    <path
       d="m 26.597174,73.146681 -0.7389,62.366089 c 31.42863,16.19048 62.85723,32.38095 94.285826,48.57143 -0.1637,27.91253 -0.3274,38.61381 -0.4911,52.90171"
       id="path3007-9"
       style="fill:none;stroke:#4b17e8;stroke-width:6.19999981;stroke-linecap:round;stroke-linejoin:miter;stroke-miterlimit:4;stroke-opacity:0.94901961;stroke-dasharray:none" />
    <path
       d="m 119.7421,72.075451 0,59.017899 c 0,0 -63.796796,7.63981 -42.767996,19.37525 17.4252,9.72437 -51.11583,31.16037 -51.11583,31.16037 l 0,56.74094"
       id="path3017-3"
       style="fill:none;stroke:#4b17e8;stroke-width:6.19999981;stroke-linecap:round;stroke-linejoin:miter;stroke-miterlimit:4;stroke-opacity:0.94811318;stroke-dasharray:none" />
    <path
       d="m -898.12385,232.80579 a 8.5933113,8.3477879 0 1 1 -17.18662,0 8.5933113,8.3477879 0 1 1 17.18662,0 z"
       transform="translate(977,669.22222)"
       id="path3934"
       style="fill:#4b17e8;fill-opacity:0.94901961;stroke:#4b17e8;stroke-width:6.19999981;stroke-miterlimit:4;stroke-opacity:0.94901961;stroke-dasharray:none" />
    <path
       d="m 24.88612,432.33759 0,58.92557 97.22713,0 0,-59.90765"
       id="path3936"
       style="fill:none;stroke:#4b17e8;stroke-width:6.19999981;stroke-linecap:round;stroke-linejoin:miter;stroke-miterlimit:4;stroke-opacity:0.94901961;stroke-dasharray:none" />
    <path
       d="m 24.88612,594.92012 0,-55.97929 98.20923,0 0,55.97929"
       id="path3940"
       style="fill:none;stroke:#4b17e8;stroke-width:6.19999981;stroke-linecap:round;stroke-linejoin:miter;stroke-miterlimit:4;stroke-opacity:0.94901961;stroke-dasharray:none" />
    <path
       d="m 395.18521,427.42369 c 0.9821,59.90764 -0.9821,60.88974 -0.9821,60.88974"
       id="path4329"
       style="fill:none;stroke:#4b17e8;stroke-width:6.19999981;stroke-linecap:round;stroke-linejoin:miter;stroke-miterlimit:4;stroke-opacity:0.94901961;stroke-dasharray:none" />
    <path
       d="m 492.44811,426.4416 c 0,57.94346 0,59.90765 0,59.90765"
       id="path4331"
       style="fill:none;stroke:#4b17e8;stroke-width:6.19999981;stroke-linecap:round;stroke-linejoin:miter;stroke-miterlimit:4;stroke-opacity:0.94901961;stroke-dasharray:none" />
    <path
       d="m 395.22091,488.31344 c 97.2272,0 97.2272,0 97.2272,0"
       id="path4335"
       style="fill:none;stroke:#4b17e8;stroke-width:4;stroke-linecap:round;stroke-linejoin:miter;stroke-miterlimit:4;stroke-opacity:0.94901961;stroke-dasharray:4, 8;stroke-dashoffset:0" />
    <path
       d="m 394.27561,529.81678 c 0.9821,59.90764 0.9821,66.78229 0.9821,66.78229"
       id="path4329-5"
       style="fill:none;stroke:#4b17e8;stroke-width:6.19999981;stroke-linecap:round;stroke-linejoin:miter;stroke-miterlimit:4;stroke-opacity:0.94901961;stroke-dasharray:none" />
    <path
       d="m 491.50271,531.81678 c 0,57.94346 0,62.85392 0,62.85392"
       id="path4331-2"
       style="fill:none;stroke:#4b17e8;stroke-width:6.19999981;stroke-linecap:round;stroke-linejoin:miter;stroke-miterlimit:4;stroke-opacity:0.94901961;stroke-dasharray:none" />
    <path
       d="m 394.27551,531.72443 c 97.2272,0 97.2272,0 97.2272,0"
       id="path4335-5"
       style="fill:none;stroke:#4b17e8;stroke-width:4;stroke-linecap:round;stroke-linejoin:miter;stroke-miterlimit:4;stroke-opacity:0.94901961;stroke-dasharray:4, 8;stroke-dashoffset:0" />
    <path
       d="m 396.04863,61.698131 c 0.9821,59.907639 -0.9821,60.889739 -0.9821,60.889739"
       id="path4329-4"
       style="fill:none;stroke:#4b17e8;stroke-width:6.19999981;stroke-linecap:round;stroke-linejoin:miter;stroke-miterlimit:4;stroke-opacity:0.94901961;stroke-dasharray:none" />
    <path
       d="m 493.31153,60.716041 c 0,57.943459 0,59.907649 0,59.907649"
       id="path4331-7"
       style="fill:none;stroke:#4b17e8;stroke-width:6.19999981;stroke-linecap:round;stroke-linejoin:miter;stroke-miterlimit:4;stroke-opacity:0.94901961;stroke-dasharray:none" />
    <path
       d="m 395.13903,164.09122 c 0.9821,59.90764 0.9821,66.78229 0.9821,66.78229"
       id="path4329-5-4"
       style="fill:none;stroke:#4b17e8;stroke-width:6.19999981;stroke-linecap:round;stroke-linejoin:miter;stroke-miterlimit:4;stroke-opacity:0.94901961;stroke-dasharray:none" />
    <path
       d="m 492.36613,166.09122 c 0,57.94346 0,62.85392 0,62.85392"
       id="path4331-2-3"
       style="fill:none;stroke:#4b17e8;stroke-width:6.19999981;stroke-linecap:round;stroke-linejoin:miter;stroke-miterlimit:4;stroke-opacity:0.94901961;stroke-dasharray:none" />
    <path
       d="m 395.08443,123.20664 c 89.3704,39.28371 99.1914,41.24789 99.1914,41.24789"
       id="path4394"
       style="fill:none;stroke:#4b17e8;stroke-width:4;stroke-linecap:round;stroke-linejoin:miter;stroke-miterlimit:4;stroke-opacity:0.94901961;stroke-dasharray:4, 8;stroke-dashoffset:0" />
    <path
       d="m 491.32943,122.22455 c -14.3024,6.32316 -28.3067,1.04248 -38.5602,5.5756 -7.6825,3.39647 -6.5766,34.44698 -12.3161,36.98447 -36.5707,16.16808 -42.4225,-1.31219 -42.4225,-1.31219"
       id="path4396"
       style="fill:none;stroke:#4b17e8;stroke-width:4;stroke-linecap:round;stroke-linejoin:miter;stroke-miterlimit:4;stroke-opacity:0.94901961;stroke-dasharray:4, 8;stroke-dashoffset:0" />
    <path
       d="m 397.35959,802.54331 c 0.9821,59.90764 -0.9821,60.88974 -0.9821,60.88974"
       id="path4329-4-7"
       style="fill:none;stroke:#4b17e8;stroke-width:6.19999981;stroke-linecap:round;stroke-linejoin:miter;stroke-miterlimit:4;stroke-opacity:0.94901961;stroke-dasharray:none" />
    <path
       d="m 494.62249,801.56122 c 0,57.94346 0,64.07432 0,64.07432"
       id="path4331-7-8"
       style="fill:none;stroke:#4b17e8;stroke-width:6.19999981;stroke-linecap:round;stroke-linejoin:miter;stroke-miterlimit:4;stroke-opacity:0.94901961;stroke-dasharray:none" />
    <path
       d="m 396.44999,904.9364 c 0.9821,59.90764 0.9821,66.78229 0.9821,66.78229"
       id="path4329-5-4-6"
       style="fill:none;stroke:#4b17e8;stroke-width:6.19999981;stroke-linecap:round;stroke-linejoin:miter;stroke-miterlimit:4;stroke-opacity:0.94901961;stroke-dasharray:none" />
    <path
       d="m 493.67709,906.9364 c 0,57.94346 0,62.85392 0,62.85392"
       id="path4331-2-3-8"
       style="fill:none;stroke:#4b17e8;stroke-width:6.19999981;stroke-linecap:round;stroke-linejoin:miter;stroke-miterlimit:4;stroke-opacity:0.94901961;stroke-dasharray:none" />
    <path
       d="m 396.39539,864.05182 c 89.3704,39.28371 99.1914,41.24789 99.1914,41.24789"
       id="path4394-8"
       style="fill:none;stroke:#4b17e8;stroke-width:4;stroke-linecap:round;stroke-linejoin:miter;stroke-miterlimit:4;stroke-opacity:0.94901961;stroke-dasharray:4, 8;stroke-dashoffset:0" />
    <path
       d="m 495.5,867.19551 -97.22223,36.11111"
       id="path4431"
       style="fill:none;stroke:#4b17e8;stroke-width:4;stroke-linecap:round;stroke-linejoin:miter;stroke-miterlimit:4;stroke-opacity:0.94901961;stroke-dasharray:4, 8;stroke-dashoffset:0" />
    <path
       d="m -898.12385,232.80579 a 8.5933113,8.3477879 0 1 1 -17.18662,0 8.5933113,8.3477879 0 1 1 17.18662,0 z"
       transform="translate(1353.9394,650.72306)"
       id="path3934-3"
       style="fill:#4b17e8;fill-opacity:0.94901961;stroke:#4b17e8;stroke-width:6.19999981;stroke-miterlimit:4;stroke-opacity:0.94901961;stroke-dasharray:none" />
    <text
       x="182.90871"
       y="92.299629"
       id="text3012"
       xml:space="preserve"
       style="font-size:40px;font-style:normal;font-weight:normal;line-height:125%;letter-spacing:0px;word-spacing:0px;fill:#000000;fill-opacity:1;stroke:none;font-family:Sans"><tspan
         x="182.90871"
         y="92.299629"
         id="tspan3014">1 0 0 0</tspan><tspan
         x="182.90871"
         y="142.29962"
         id="tspan3016">0 0 1 0</tspan><tspan
         x="182.90871"
         y="192.29962"
         id="tspan3018">0 1 0 0</tspan><tspan
         x="182.90871"
         y="242.29962"
         id="tspan3020">0 0 0 1</tspan></text>
    <path
       d="m 335.36652,60.935319 c 0,0 13.5059,-10.17363 17.7367,19.12558 5.198,35.998121 1.3486,114.243631 1.7078,132.537781 0.5762,29.34688 -19.4445,27.07752 -19.4445,27.07752"
       id="path3022-7"
       style="fill:none;stroke:#000000;stroke-width:3;stroke-linecap:round;stroke-linejoin:miter;stroke-miterlimit:4;stroke-opacity:1;stroke-dasharray:none" />
    <path
       d="m 163.66426,237.71692 c 0,0 -13.61052,10.03324 -17.53773,-19.3082 -4.82499,-36.05001 -0.16562,-114.25148 -0.33539,-132.548361 -0.27231,-29.35128 19.72382,-26.87474 19.72382,-26.87474"
       id="path3022-7-6"
       style="fill:none;stroke:#000000;stroke-width:3;stroke-linecap:round;stroke-linejoin:miter;stroke-miterlimit:4;stroke-opacity:1;stroke-dasharray:none" />
    <text
       x="560.09601"
       y="85.89637"
       id="text3012-5"
       xml:space="preserve"
       style="font-size:40px;font-style:normal;font-weight:normal;line-height:125%;letter-spacing:0px;word-spacing:0px;fill:#000000;fill-opacity:1;stroke:none;font-family:Sans"><tspan
         x="560.09601"
         y="85.89637"
         id="tspan3014-6">0 0 0 1</tspan><tspan
         x="560.09601"
         y="135.89636"
         id="tspan3016-9">0 1 0 0</tspan><tspan
         x="560.09601"
         y="185.89636"
         id="tspan3018-3">0 0 1 0</tspan><tspan
         x="560.09601"
         y="235.89636"
         id="tspan3020-7">1 0 0 0</tspan></text>
    <path
       d="m 712.55381,54.532066 c 0,0 13.5059,-10.17363 17.7367,19.12558 5.198,35.998124 1.3486,114.243634 1.7078,132.537784 0.5762,29.34688 -19.4445,27.07752 -19.4445,27.07752"
       id="path3022-7-4"
       style="fill:none;stroke:#000000;stroke-width:3;stroke-linecap:round;stroke-linejoin:miter;stroke-miterlimit:4;stroke-opacity:1;stroke-dasharray:none" />
    <path
       d="m 540.85155,231.31367 c 0,0 -13.61052,10.03324 -17.53773,-19.3082 -4.82499,-36.05001 -0.16562,-114.251484 -0.33539,-132.548364 -0.27231,-29.35128 19.72382,-26.87474 19.72382,-26.87474"
       id="path3022-7-6-5"
       style="fill:none;stroke:#000000;stroke-width:3;stroke-linecap:round;stroke-linejoin:miter;stroke-miterlimit:4;stroke-opacity:1;stroke-dasharray:none" />
    <flowRoot
       id="flowRoot3882"
       xml:space="preserve"
       style="font-size:40px;font-style:normal;font-weight:normal;line-height:125%;letter-spacing:0px;word-spacing:0px;fill:#000000;fill-opacity:1;stroke:none;font-family:Sans"><flowRegion
         id="flowRegion3884"><rect
           width="254.86111"
           height="246.52779"
           x="958.33331"
           y="165.55663"
           id="rect3886" /></flowRegion><flowPara
         id="flowPara3888" /></flowRoot>    <text
       x="185.90321"
       y="460.33057"
       id="text3012-2"
       xml:space="preserve"
       style="font-size:40px;font-style:normal;font-weight:normal;line-height:125%;letter-spacing:0px;word-spacing:0px;fill:#000000;fill-opacity:1;stroke:none;font-family:Sans"><tspan
         x="185.90321"
         y="460.33057"
         id="tspan3014-5">1 0 0 1</tspan><tspan
         x="185.90321"
         y="510.33057"
         id="tspan3016-4">0 0 0 0</tspan><tspan
         x="185.90321"
         y="560.33057"
         id="tspan3018-7">0 0 0 0</tspan><tspan
         x="185.90321"
         y="610.33057"
         id="tspan3020-4">1 0 0 1</tspan></text>
    <path
       d="m 338.36102,428.96627 c 0,0 13.5059,-10.17363 17.7367,19.12558 5.198,35.99812 1.3486,114.24363 1.7078,132.53778 0.5762,29.34688 -19.4445,27.07752 -19.4445,27.07752"
       id="path3022-7-43"
       style="fill:none;stroke:#000000;stroke-width:3;stroke-linecap:round;stroke-linejoin:miter;stroke-miterlimit:4;stroke-opacity:1;stroke-dasharray:none" />
    <path
       d="m 166.65876,605.74787 c 0,0 -13.61052,10.03324 -17.53773,-19.3082 -4.82499,-36.05001 -0.16562,-114.25148 -0.33539,-132.54836 -0.27231,-29.35128 19.72382,-26.87474 19.72382,-26.87474"
       id="path3022-7-6-0"
       style="fill:none;stroke:#000000;stroke-width:3;stroke-linecap:round;stroke-linejoin:miter;stroke-miterlimit:4;stroke-opacity:1;stroke-dasharray:none" />
    <text
       x="559.52264"
       y="458.25894"
       id="text3012-7"
       xml:space="preserve"
       style="font-size:40px;font-style:normal;font-weight:normal;line-height:125%;letter-spacing:0px;word-spacing:0px;fill:#000000;fill-opacity:1;stroke:none;font-family:Sans"><tspan
         x="559.52264"
         y="458.25894"
         id="tspan3014-8">0 0 0 0</tspan><tspan
         x="559.52264"
         y="508.25894"
         id="tspan3016-6">0 1 1 0</tspan><tspan
         x="559.52264"
         y="558.25891"
         id="tspan3018-8">0 1 1 0</tspan><tspan
         x="559.52264"
         y="608.25891"
         id="tspan3020-8">0 0 0 0</tspan></text>
    <path
       d="m 711.98043,426.89464 c 0,0 13.5059,-10.17363 17.7367,19.12558 5.198,35.99812 1.3486,114.24363 1.7078,132.53778 0.5762,29.34688 -19.4445,27.07752 -19.4445,27.07752"
       id="path3022-7-431"
       style="fill:none;stroke:#000000;stroke-width:3;stroke-linecap:round;stroke-linejoin:miter;stroke-miterlimit:4;stroke-opacity:1;stroke-dasharray:none" />
    <path
       d="m 540.27817,603.67624 c 0,0 -13.61052,10.03324 -17.53773,-19.3082 -4.82499,-36.05001 -0.16562,-114.25148 -0.33539,-132.54836 -0.27231,-29.35128 19.72382,-26.87474 19.72382,-26.87474"
       id="path3022-7-6-4"
       style="fill:none;stroke:#000000;stroke-width:3;stroke-linecap:round;stroke-linejoin:miter;stroke-miterlimit:4;stroke-opacity:1;stroke-dasharray:none" />
    <text
       x="189.10968"
       y="835.87274"
       id="text3012-9"
       xml:space="preserve"
       style="font-size:40px;font-style:normal;font-weight:normal;line-height:125%;letter-spacing:0px;word-spacing:0px;fill:#000000;fill-opacity:1;stroke:none;font-family:Sans"><tspan
         x="189.10968"
         y="835.87274"
         id="tspan3014-2">1 0 0 0</tspan><tspan
         x="189.10968"
         y="885.87274"
         id="tspan3016-0">0 0 0 0</tspan><tspan
         x="189.10968"
         y="935.87274"
         id="tspan3018-6">0 0 0 0</tspan><tspan
         x="189.10968"
         y="985.87274"
         id="tspan3020-89">0 0 0 1</tspan></text>
    <path
       d="m 341.56749,804.50844 c 0,0 13.5059,-10.17363 17.7367,19.12558 5.198,35.99812 1.3486,114.24368 1.7078,132.53778 0.5762,29.3469 -19.4445,27.0775 -19.4445,27.0775"
       id="path3022-7-2"
       style="fill:none;stroke:#000000;stroke-width:3;stroke-linecap:round;stroke-linejoin:miter;stroke-miterlimit:4;stroke-opacity:1;stroke-dasharray:none" />
    <path
       d="m 169.86523,981.29 c 0,0 -13.61052,10.0333 -17.53773,-19.3082 -4.82499,-36.05 -0.16562,-114.25144 -0.33539,-132.54832 -0.27231,-29.35128 19.72382,-26.87474 19.72382,-26.87474"
       id="path3022-7-6-6"
       style="fill:none;stroke:#000000;stroke-width:3;stroke-linecap:round;stroke-linejoin:miter;stroke-miterlimit:4;stroke-opacity:1;stroke-dasharray:none" />
    <text
       x="558.2691"
       y="828.4458"
       id="text3012-6"
       xml:space="preserve"
       style="font-size:40px;font-style:normal;font-weight:normal;line-height:125%;letter-spacing:0px;word-spacing:0px;fill:#000000;fill-opacity:1;stroke:none;font-family:Sans"><tspan
         x="558.2691"
         y="828.4458"
         id="tspan3014-4">0 0 0 0</tspan><tspan
         x="558.2691"
         y="878.4458"
         id="tspan3016-95">0 1 0 0</tspan><tspan
         x="558.2691"
         y="928.4458"
         id="tspan3018-0">0 0 1 0</tspan><tspan
         x="558.2691"
         y="978.4458"
         id="tspan3020-48">0 0 0 0</tspan></text>
    <path
       d="m 710.72693,797.08147 c 0,0 13.5059,-10.17363 17.7367,19.12558 5.198,35.99812 1.3486,114.24363 1.7078,132.53775 0.5762,29.3469 -19.4445,27.0776 -19.4445,27.0776"
       id="path3022-7-7"
       style="fill:none;stroke:#000000;stroke-width:3;stroke-linecap:round;stroke-linejoin:miter;stroke-miterlimit:4;stroke-opacity:1;stroke-dasharray:none" />
    <path
       d="m 539.02467,973.8631 c 0,0 -13.61052,10.0332 -17.53773,-19.3082 -4.82499,-36.05004 -0.16562,-114.25151 -0.33539,-132.54839 -0.27231,-29.35128 19.72382,-26.87474 19.72382,-26.87474"
       id="path3022-7-6-1"
       style="fill:none;stroke:#000000;stroke-width:3;stroke-linecap:round;stroke-linejoin:miter;stroke-miterlimit:4;stroke-opacity:1;stroke-dasharray:none" />
  </g>
</svg>
